{"title":"Alexander 2004 720p Dual Audio (Hindi-English)~Abhinav4u~{HKRG","uid":7938870,"size":2484510269,"categoryP":"video","categoryS":"hd___movies","magnet":"?xt=urn:btih:b4c10ba64c0425aef960b1aec554cddb9ac5dd88&amp;dn=Alexander+2004+720p+Dual+Audio+%28Hindi-English%29%7EAbhinav4u%7E%7BHKRG&amp;tr=udp%3A%2F%2Ftracker.openbittorrent.com%3A80&amp;tr=udp%3A%2F%2Fopen.demonii.com%3A1337&amp;tr=udp%3A%2F%2Ftracker.coppersurfer.tk%3A6969&amp;tr=udp%3A%2F%2Fexodus.desync.com%3A6969","seeders":1,"leechers":1,"uploader":"Abhinav4u","files":3,"time":1355930738,"description":"Group:- HKRG\nUploader:-Abhinav4u\n\nFormat                                   : Matroska\nFormat version                           : Version 2\nFile size                                : 2.31 GiB\nDuration                                 : 2h 50mn\nOverall bit rate mode                    : Variable\nOverall bit rate                         : 1 940 Kbps\nMovie name                               : Alexander 2004 720p Dual Audio (Hindi-English)~Abhinav4u~{HKRG}\n\nVideo Info:-\nFormat/Info                              : Advanced Video Codec\nFormat profile                           : &lt;a class=&quot;__cf_email__&quot; href=&quot;/cdn-cgi/l/email-protection&quot; data-cfemail=&quot;256d4c424d6569110b15&quot;&gt;[email&amp;#160;protected]&lt;/a&gt;&lt;script cf-hash='f9e31' type=&quot;text/javascript&quot;&gt;\n/* &lt;![CDATA[ */!function(){try{var t=&quot;currentScript&quot;in document?document.currentScript:function(){for(var t=document.getElementsByTagName(&quot;script&quot;),e=t.length;e--;)if(t[e].getAttribute(&quot;cf-hash&quot;))return t[e]}();if(t&amp;&amp;t.previousSibling){var e,r,n,i,c=t.previousSibling,a=c.getAttribute(&quot;data-cfemail&quot;);if(a){for(e=&quot;&quot;,r=parseInt(a.substr(0,2),16),n=2;a.length-n;n+=2)i=parseInt(a.substr(n,2),16)^r,e+=String.fromCharCode(i);e=document.createTextNode(e),c.parentNode.replaceChild(e,c)}}}catch(u){}}();/* ]]&gt; */&lt;/script&gt;\nWidth                                    : 1 280 pixels\nHeight                                   : 544 pixels\nFrame rate                               : 23.976 fps\nStream size                              : 1.80 GiB (78%)\nTitle                                    : Ripper::~Abhinav4u~\n\nAudio #1:-\nFormat                                   : AC-3\nFormat/Info                              : Audio Coding 3\nMode extension                           : CM (complete main)\nChannel(s)                               : 6 channels\nChannel positions                        : Front: L C R, Side: L R, LFE\nStream size                              : 234 MiB (10%)\nTitle                                    : 5.1~Abhinav4u~\nLanguage                                 : English\n\nAudio #2:-\nFormat/Info                              : Audio Coding 3\nBit rate                                 : 192 Kbps\nChannel(s)                               : 2 channels\nSampling rate                            : 48.0 KHz\nStream size                              : 234 MiB (10%)\nTitle                                    : 2.0 DD @192Kbps~Abhinav4u~\nLanguage                                 : Hindi\nDefault                                  : Yes\n\nSample Included in The Rip..\nEnjoy the Movie..","torrent":{"xt":"urn:btih:b4c10ba64c0425aef960b1aec554cddb9ac5dd88","amp;dn":"Alexander+2004+720p+Dual+Audio+%28Hindi-English%29%7EAbhinav4u%7E%7BHKRG","amp;tr":["udp%3A%2F%2Ftracker.openbittorrent.com%3A80","udp%3A%2F%2Fopen.demonii.com%3A1337","udp%3A%2F%2Ftracker.coppersurfer.tk%3A6969","udp%3A%2F%2Fexodus.desync.com%3A6969"],"infoHash":"b4c10ba64c0425aef960b1aec554cddb9ac5dd88","infoHashBuffer":{"type":"Buffer","data":[180,193,11,166,76,4,37,174,249,96,177,174,197,84,205,219,154,197,221,136]},"announce":[],"urlList":[]}}